<svg xmlns="http://www.w3.org/2000/svg" xmlns:xlink="http://www.w3.org/1999/xlink" version="1.1" style="shape-rendering:geometricPrecision; text-rendering:geometricPrecision; image-rendering:optimizeQuality; fill-rule:evenodd; clip-rule:evenodd" viewBox="7.46 7.43 496.04 495.92">
<g><path style="opacity:0.977" fill="#004fac" d="M 251.5,7.5 C 257.171,7.11217 262.504,8.27883 267.5,11C 345.765,43.6426 423.932,76.4759 502,109.5C 504,113.5 504,117.5 502,121.5C 487.044,127.653 471.877,133.32 456.5,138.5C 455.167,157.833 455.167,177.167 456.5,196.5C 471.869,205.113 475.703,217.446 468,233.5C 459.866,243.366 449.699,246.199 437.5,242C 424.501,234.683 420.335,223.849 425,209.5C 428.028,203.639 432.528,199.306 438.5,196.5C 439.833,179.167 439.833,161.833 438.5,144.5C 425.612,149.073 412.778,153.74 400,158.5C 399.667,194.5 399.333,230.5 399,266.5C 398.626,267.416 398.126,268.25 397.5,269C 415.505,304.041 420.339,340.875 412,379.5C 395.883,440.415 357.716,480.082 297.5,498.5C 222.231,514.42 162.731,491.087 119,428.5C 92.5353,382.559 88.2019,334.559 106,284.5C 108.099,279.135 110.599,273.968 113.5,269C 112.874,268.25 112.374,267.416 112,266.5C 111.667,230.5 111.333,194.5 111,158.5C 78.6679,146.611 46.1679,135.111 13.5,124C 9.1668,122.839 7.1668,120.005 7.5,115.5C 7.40428,110.09 10.071,106.923 15.5,106C 94.3706,73.3902 173.037,40.5569 251.5,7.5 Z M 444.5,212.5 C 453.85,212.365 456.517,216.532 452.5,225C 443.956,228.322 440.123,225.489 441,216.5C 441.69,214.65 442.856,213.316 444.5,212.5 Z M 125.5,281.5 C 132.981,286.054 140.981,289.554 149.5,292C 159.149,294.496 168.815,296.829 178.5,299C 176.216,311.013 175.216,323.18 175.5,335.5C 154.5,335.5 133.5,335.5 112.5,335.5C 113.696,316.716 118.03,298.716 125.5,281.5 Z M 384.5,281.5 C 392.897,298.418 397.564,316.418 398.5,335.5C 377.5,335.5 356.5,335.5 335.5,335.5C 335.784,323.18 334.784,311.013 332.5,299C 345.348,296.429 358.015,293.096 370.5,289C 375.674,287.249 380.341,284.749 384.5,281.5 Z M 194.5,300.5 C 212.08,302.775 229.747,303.775 247.5,303.5C 247.5,314.167 247.5,324.833 247.5,335.5C 229.167,335.5 210.833,335.5 192.5,335.5C 192.571,323.796 193.237,312.129 194.5,300.5 Z M 313.5,300.5 C 314.5,300.5 315.5,300.5 316.5,300.5C 317.763,312.129 318.429,323.796 318.5,335.5C 300.167,335.5 281.833,335.5 263.5,335.5C 263.5,324.833 263.5,314.167 263.5,303.5C 280.401,303.879 297.068,302.879 313.5,300.5 Z M 211.5,479.5 C 159.932,461.427 127.765,425.761 115,372.5C 113.65,365.554 112.817,358.554 112.5,351.5C 133.5,351.5 154.5,351.5 175.5,351.5C 175.438,387.69 182.604,422.357 197,455.5C 201.593,463.694 206.427,471.694 211.5,479.5 Z M 192.5,351.5 C 210.833,351.5 229.167,351.5 247.5,351.5C 247.833,396.172 247.5,440.838 246.5,485.5C 233.859,478.692 224.026,469.026 217,456.5C 200.494,423.476 192.328,388.476 192.5,351.5 Z M 263.5,351.5 C 281.833,351.5 300.167,351.5 318.5,351.5C 318.48,382.957 312.646,413.29 301,442.5C 294.888,456.942 286.054,469.442 274.5,480C 271.327,482.087 267.994,483.921 264.5,485.5C 263.5,440.838 263.167,396.172 263.5,351.5 Z M 299.5,479.5 C 318.248,451.77 329.415,421.103 333,387.5C 334.827,375.567 335.66,363.567 335.5,351.5C 356.5,351.5 377.5,351.5 398.5,351.5C 394.819,398.045 374.152,434.878 336.5,462C 324.922,469.456 312.588,475.289 299.5,479.5 Z"/></g>
<g><path style="opacity:1" fill="#56a3fe" d="M 253.5,24.5 C 326.925,53.5875 399.925,83.7541 472.5,115C 400.182,140.272 327.848,165.439 255.5,190.5C 183.001,165.834 110.668,140.667 38.5,115C 110.226,84.7989 181.892,54.6322 253.5,24.5 Z"/></g>
<g><path style="opacity:1" fill="#56a3fe" d="M 127.5,163.5 C 169.953,178.262 212.453,192.929 255,207.5C 297.818,192.728 340.651,178.061 383.5,163.5C 383.667,196.168 383.5,228.835 383,261.5C 378.275,266.868 372.442,270.702 365.5,273C 346.974,279.125 327.974,283.125 308.5,285C 265.042,289.045 221.709,288.045 178.5,282C 161.233,279.69 145.233,274.024 130.5,265C 129.299,264.097 128.465,262.931 128,261.5C 127.5,228.835 127.333,196.168 127.5,163.5 Z"/></g>
</svg>